#!OML:ASF X:\für Bonn\!DataBase\2005_08_12_Daniel\c3d\Daniel.ASF
:FULLY-SPECIFIED
:DEGREES
48
root 2.87493 17.6241 17.5896 -5.21971 11.4302 0.804323
lowerback 5.30469 -0.79224 0.138306
upperback 1.30746 -1.11194 -3.64317
thorax -1.70386 -0.556726 -3.76087
lowerneck 1.98252 -2.06782 -1.0872
upperneck 9.69348 -2.87062 1.52287
head 2.77488 -1.41685 0.620227
rclavicle 6.1499e-015 6.36111e-015
rhumerus -0.503863 3.08834 -77.0495
rradius 96.7919
rwrist 4.70329
rhand -32.9761 9.74311
rfingers 7.12502
rthumb -6.19119 -20.1464
lclavicle 6.1499e-015 6.36111e-015
lhumerus -40.3594 43.1887 60.4431
lradius 18.5383
lwrist -39.1606
lhand -10.4651 -5.54881
lfingers 7.12502
lthumb 15.5358 23.8471
rfemur 6.62895 18.6689 20.5845
rtibia 17.7531
rfoot -26.6342 -25.4506
rtoes -11.4149
lfemur 0.441668 -18.4463 -21.2163
ltibia 27.0587
lfoot -21.9481 8.21952
ltoes -13.931
49
root 2.87225 17.6245 17.589 -5.22719 11.4552 0.804849
lowerback 5.31352 -0.714204 0.208937
upperback 1.29044 -1.00594 -3.71373
thorax -1.72167 -0.504314 -3.88158
lowerneck 2.00928 -2.14146 -1.05474
upperneck 9.69804 -2.97442 1.58597
head 2.77391 -1.46552 0.633192
rclavicle 1.87976e-014 3.18055e-015
rhumerus 0.920355 2.91607 -76.5679
rradius 95.9546
rwrist 4.63035
rhand -32.4383 9.21472
rfingers 7.12502
rthumb -5.67194 -20.6894
lclavicle 1.87976e-014 3.18055e-015
lhumerus -40.2288 42.9974 60.4739
lradius 18.5374
lwrist -39.0798
lhand -10.4512 -5.5246
lfingers 7.12502
lthumb 15.5491 23.8703
rfemur 6.61532 18.5814 20.5705
rtibia 17.7688
rfoot -26.6002 -25.3999
rtoes -11.4333
lfemur 0.443384 -18.4807 -21.2146
ltibia 27.0615
lfoot -21.9468 8.22476
ltoes -13.93
50
root 2.86957 17.6243 17.5885 -5.24022 11.4942 0.815343
lowerback 5.33099 -0.648374 0.252879
upperback 1.27576 -0.917452 -3.77012
thorax -1.74199 -0.460564 -3.97126
lowerneck 2.01615 -2.20346 -1.08081
upperneck 9.72942 -3.06485 1.67863
head 2.78728 -1.50854 0.665656
rclavicle -1.49337e-014 5.56597e-015
rhumerus 2.36498 2.79297 -76.0289
rradius 95.0402
rwrist 4.54951
rhand -31.9267 8.75359
rfingers 7.12502
rthumb -5.17794 -21.1631
lclavicle -1.49337e-014 5.56597e-015
lhumerus -40.0805 42.7728 60.5643
lradius 18.5489
lwrist -38.8906
lhand -10.4333 -5.46704
lfingers 7.12502
lthumb 15.5664 23.9265
rfemur 6.62155 18.5216 20.5624
rtibia 17.7848
rfoot -26.5777 -25.3827
rtoes -11.3774
lfemur 0.446103 -18.5171 -21.2231
ltibia 27.0638
lfoot -21.9376 8.22038
ltoes -13.9321
51
root 2.86611 17.6243 17.5878 -5.2473 11.5317 0.81499
lowerback 5.33223 -0.575553 0.308044
upperback 1.27059 -0.818497 -3.83237
thorax -1.74259 -0.41134 -4.07437
lowerneck 1.99482 -2.27827 -1.05566
upperneck 9.756 -3.16954 1.73236
head 2.80261 -1.55785 0.676295
rclavicle 3.01904e-014 -2.3059e-014
rhumerus 3.81205 2.66313 -75.4965
rradius 94.0854
rwrist 4.47559
rhand -31.4483 8.3371
rfingers 7.12502
rthumb -4.716 -21.5904
lclavicle 3.01904e-014 -2.3059e-014
lhumerus -39.9285 42.6038 60.6034
lradius 18.5427
lwrist -38.8391
lhand -10.4625 -5.44609
lfingers 7.12502
lthumb 15.5383 23.9496
rfemur 6.60957 18.4465 20.5589
rtibia 17.8041
rfoot -26.5602 -25.3534
rtoes -11.3993
lfemur 0.437289 -18.4915 -21.2012
ltibia 27.0629
lfoot -21.9176 8.16915
ltoes -13.9859
52
root 2.86358 17.6242 17.5871 -5.25418 11.5702 0.814841
lowerback 5.33353 -0.513798 0.362526
upperback 1.26224 -0.73433 -3.88773
thorax -1.74712 -0.369584 -4.16894
lowerneck 1.99111 -2.34293 -1.05446
upperneck 9.77944 -3.26208 1.80473
head 2.81446 -1.6015 0.697439
rclavicle -3.72845e-014 -8.74653e-015
rhumerus 5.27341 2.55887 -74.9384
rradius 93.054
rwrist 4.37992
rhand -30.9849 7.98541
rfingers 7.12502
rthumb -4.2686 -21.9516
lclavicle -3.72845e-014 -8.74653e-015
lhumerus -39.8091 42.4588 60.6221
lradius 18.5574
lwrist -38.7891
lhand -10.4324 -5.42041
lfingers 7.12502
lthumb 15.5673 23.9731
rfemur 6.60147 18.3458 20.5459
rtibia 17.8171
rfoot -26.5306 -25.3018
rtoes -11.4156
lfemur 0.432927 -18.5261 -21.1957
ltibia 27.0675
lfoot -21.9127 8.16133
ltoes -13.9862
53
root 2.86029 17.6242 17.5866 -5.26096 11.6066 0.814456
lowerback 5.34524 -0.446877 0.415038
upperback 1.24903 -0.64369 -3.94282
thorax -1.7616 -0.324742 -4.2626
lowerneck 1.99042 -2.40799 -1.0458
upperneck 9.79101 -3.3542 1.86621
head 2.82141 -1.64506 0.713872
rclavicle -2.21893e-014 6.04305e-014
rhumerus 6.73186 2.46066 -74.3613
rradius 91.9646
rwrist 4.25795
rhand -30.5292 7.72652
rfingers 7.12502
rthumb -3.82854 -22.2188
lclavicle -2.21893e-014 6.04305e-014
lhumerus -39.6614 42.2586 60.6804
lradius 18.5487
lwrist -38.6843
lhand -10.5006 -5.37093
lfingers 7.12502
lthumb 15.5015 24.0276
rfemur 6.59241 18.2705 20.5408
rtibia 17.83
rfoot -26.5095 -25.272
rtoes -11.4378
lfemur 0.423738 -18.5239 -21.1774
ltibia 27.0724
lfoot -21.8977 8.11684
ltoes -13.95
54
root 2.85761 17.6246 17.5859 -5.27172 11.6582 0.801652
lowerback 5.34662 -0.386682 0.481872
upperback 1.24743 -0.560545 -3.99169
thorax -1.75867 -0.283383 -4.35747
lowerneck 1.95152 -2.47775 -1.04765
upperneck 9.83545 -3.45295 1.92751
head 2.84688 -1.69189 0.73137
rclavicle -2.41026e-014 0
rhumerus 8.2036 2.38918 -73.7475
rradius 90.8058
rwrist 4.15373
rhand -30.1358 7.49901
rfingers 7.12502
rthumb -3.44863 -22.4528
lclavicle -2.41026e-014 0
lhumerus -39.5792 42.2639 60.6025
lradius 18.5106
lwrist -38.8044
lhand -10.5119 -5.41763
lfingers 7.12502
lthumb 15.4906 23.9818
rfemur 6.59762 18.22 20.5616
rtibia 17.8415
rfoot -26.5184 -25.2749
rtoes -11.4357
lfemur 0.410381 -18.5438 -21.1547
ltibia 27.0795
lfoot -21.8676 8.09639
ltoes -13.9519
55
root 2.8543 17.6245 17.5855 -5.27858 11.6896 0.802062
lowerback 5.35089 -0.314907 0.547595
upperback 1.23623 -0.46269 -4.05966
thorax -1.76584 -0.234891 -4.4728
lowerneck 1.94536 -2.54526 -1.02786
upperneck 9.86188 -3.55013 2.00621
head 2.86028 -1.73691 0.751201
rclavicle 3.24267e-015 5.56597e-015
rhumerus 9.64373 2.27985 -73.1796
rradius 89.5881
rwrist 4.06483
rhand -29.7489 7.37759
rfingers 7.12502
rthumb -3.075 -22.58
lclavicle 3.24267e-015 5.56597e-015
lhumerus -39.4573 42.1718 60.5592
lradius 18.4684
lwrist -38.8502
lhand -10.5748 -5.40345
lfingers 7.12502
lthumb 15.4301 24.0006
rfemur 6.58807 18.145 20.5557
rtibia 17.8549
rfoot -26.4947 -25.2416
rtoes -11.4596
lfemur 0.402496 -18.5352 -21.1361
ltibia 27.0845
lfoot -21.8607 8.05162
ltoes -13.9546
56
root 2.85145 17.6244 17.585 -5.28553 11.7353 0.802068
lowerback 5.35358 -0.249362 0.606611
upperback 1.23003 -0.37312 -4.11777
thorax -1.7671 -0.190372 -4.57349
lowerneck 1.94297 -2.61604 -1.01508
upperneck 9.87114 -3.6502 2.06999
head 2.86709 -1.78416 0.767457
rclavicle 1.42255e-014 -3.18055e-015
rhumerus 11.0923 2.18229 -72.5797
rradius 88.3196
rwrist 3.97757
rhand -29.4053 7.30809
rfingers 7.12502
rthumb -2.74311 -22.654
lclavicle 1.42255e-014 -3.18055e-015
lhumerus -39.3554 42.1389 60.493
lradius 18.4185
lwrist -38.9178
lhand -10.6295 -5.43417
lfingers 7.12502
lthumb 15.3774 23.974
rfemur 6.58339 18.05 20.5505
rtibia 17.8668
rfoot -26.4449 -25.222
rtoes -11.4778
lfemur 0.396142 -18.5717 -21.1297
ltibia 27.0917
lfoot -21.8564 8.03848
ltoes -13.9553
57
root 2.848 17.6246 17.5844 -5.28501 11.7783 0.801535
lowerback 5.35714 -0.183161 0.673259
upperback 1.21771 -0.282641 -4.18635
thorax -1.7748 -0.145596 -4.68968
lowerneck 1.92642 -2.6866 -0.976929
upperneck 9.89085 -3.74978 2.12638
head 2.87928 -1.83032 0.776772
rclavicle -1.59649e-014 2.38542e-014
rhumerus 12.5108 2.0718 -71.9999
rradius 87.0223
rwrist 3.93981
rhand -29.0216 7.2611
rfingers 7.12502
rthumb -2.3726 -22.7055
lclavicle -1.59649e-014 2.38542e-014
lhumerus -39.2283 42.0541 60.4526
lradius 18.3744
lwrist -38.9625
lhand -10.6708 -5.41084
lfingers 7.12502
lthumb 15.3376 24.0003
rfemur 6.56202 17.9942 20.5507
rtibia 17.8925
rfoot -26.4436 -25.2123
rtoes -11.4928
lfemur 0.376756 -18.5509 -21.1049
ltibia 27.0899
lfoot -21.8331 7.9864
ltoes -14.0091
58
root 2.84466 17.6244 17.5839 -5.30513 11.8177 0.813827
lowerback 5.37778 -0.111005 0.716058
upperback 1.21491 -0.185232 -4.24415
thorax -1.78106 -0.0970772 -4.78156
lowerneck 1.8996 -2.75796 -0.983393
upperneck 9.93411 -3.8519 2.19971
head 2.90302 -1.87857 0.798911
rclavicle 2.04127e-014 -2.22639e-014
rhumerus 13.9542 1.9696 -71.3888
rradius 85.627
rwrist 3.89653
rhand -28.6919 7.29738
rfingers 7.12502
rthumb -2.05416 -22.6725
lclavicle 2.04127e-014 -2.22639e-014
lhumerus -39.0971 41.983 60.4297
lradius 18.309
lwrist -38.9784
lhand -10.7407 -5.43103
lfingers 7.12502
lthumb 15.2703 23.9853
rfemur 6.57016 17.9061 20.537
rtibia 17.917
rfoot -26.4221 -25.1683
rtoes -11.5109
lfemur 0.389105 -18.5425 -21.1045
ltibia 27.0891
lfoot -21.8235 7.93645
ltoes -14.0123
